# AST/ASF file generated using VICON BodyLanguage
# -----------------------------------------------
:version 1.10
:name VICON
:units
  mass 1.0
  length 0.45
  angle deg
:documentation
   .ast/.asf automatically generated from VICON data using
   VICON BodyBuilder and BodyLanguage model FoxedUp or BRILLIANT.MOD
:root
   order TX TY TZ RX RY RZ
   axis XYZ
   position 0 0 0  
   orientation 0 0 0 
:bonedata
  begin
     id 1 
     name lhipjoint
     direction 0.610259 -0.730986 0.305356 
     length 2.50941 
     axis 0 0 0  XYZ
  end
  begin
     id 2 
     name lfemur
     direction 0.34202 -0.939693 0  
     length 7.48822  
     axis 0 0 20  XYZ
    dof rx ry rz
    limits (-160.0 20.0)
           (-70.0 70.0)
           (-60.0 70.0)
  end
  begin
     id 3 
     name ltibia
     direction 0.34202 -0.939693 0   
     length 7.60141   
     axis 0 0 20   XYZ
    dof rx
    limits (-10.0 170.0)
  end
  begin
     id 4 
     name lfoot
     direction 0.0673488 -0.185039 0.980421   
     length 2.04049   
     axis -90 7.62852e-016 20   XYZ
    dof rx rz
    limits (-45.0 90.0)
           (-70.0 20.0)
  end
  begin
     id 5 
     name ltoes
     direction 1.5356e-011 -4.21729e-011 1   
     length 1.02897   
     axis -90 7.62852e-016 20   XYZ
    dof rx
    limits (-90.0 20.0)
  end
  begin
     id 6 
     name rhipjoint
     direction -0.57612 -0.754205 0.315056   
     length 2.43216  
     axis 0 0 0  XYZ 
  end
  begin
     id 7 
     name rfemur
     direction -0.34202 -0.939693 0   
     length 7.42799   
     axis 0 0 -20   XYZ
    dof rx ry rz
    limits (-160.0 20.0)
           (-70.0 70.0)
           (-70.0 60.0)
  end
  begin
     id 8 
     name rtibia
     direction -0.34202 -0.939693 0   
     length 7.69484   
     axis 0 0 -20   XYZ
    dof rx
    limits (-10.0 170.0)
 end
 begin
     id 9 
     name rfoot
     direction -0.111837 -0.30727 0.945028   
     length 2.15769  
     axis -90 -7.62852e-016 -20   XYZ
    dof rx rz
    limits (-45.0 90.0)
           (-20.0 70.0)
  end
  begin
     id 10 
     name rtoes
     direction -1.53539e-011 -4.21878e-011 1   
     length 1.07391   
     axis -90 -7.62852e-016 -20   XYZ
    dof rx
    limits (-90.0 20.0)
  end
  begin
     id 11 
     name lowerback
     direction 0.00552624 0.990109 -0.140195   
     length 2.12403   
     axis 0 0 0   XYZ
    dof rx ry rz
    limits (-20.0 45.0)
           (-30.0 30.0)
           (-30.0 30.0)
  end
  begin
     id 12 
     name upperback
     direction 0.00361898 0.999976 -0.00584723   
     length 2.13232   
     axis 0 0 0   XYZ
    dof rx ry rz
    limits (-20.0 45.0)
           (-30.0 30.0)
           (-30.0 30.0)
  end
  begin
     id 13 
     name thorax
     direction -0.000331275 0.998253 0.0590847   
     length 2.17688   
     axis 0 0 0   XYZ
    dof rx ry rz
    limits (-20.0 45.0)
           (-30.0 30.0)
           (-30.0 30.0)
  end
  begin
     id 14 
     name lowerneck
     direction -0.0561561 0.979832 0.19177   
     length 1.64159   
     axis 0 0 0   XYZ
    dof rx ry rz
    limits (-20.0 45.0)
           (-30.0 30.0)
           (-30.0 30.0)
  end
  begin
     id 15 
     name upperneck
     direction 0.0827153 0.979385 -0.184293   
     length 1.68939   
     axis 0 0 0   XYZ
    dof rx ry rz
    limits (-20.0 45.0)
           (-30.0 30.0)
           (-30.0 30.0)
  end
  begin
     id 16
     name head
     direction 0.0278583 0.995936 -0.0856488  
     length 1.70207  
     axis 0 0 0   XYZ
    dof rx ry rz
    limits (-20.0 45.0)
           (-30.0 30.0)
           (-30.0 30.0)
  end
  begin
     id 17 
     name lclavicle
     direction 0.950993 0.301131 -0.0702275  
     length 3.41652  
     axis 0 0 0   XYZ
    dof ry rz
    limits (-20.0 10.0)
           (0.0 20.0)
  end
  begin
     id 18 
     name lhumerus
     direction 1 -4.48981e-011 -3.9662e-029   
     length 5.32955   
     axis 180 -30 -90   XYZ
    dof rx ry rz
    limits (-60.0 90.0)
           (-90.0 90.0)
           (-90.0 90.0)
  end
  begin
     id 19
     name lradius
     direction 1 -4.48925e-011 -9.0549e-027   
     length 3.69232   
     axis 180 -30 -90   XYZ
    dof rx
    limits (-10.0 170.0)
  end
  begin
     id 20
     name lwrist
     direction 1 -4.49007e-011 -1.49005e-026   
     length 1.84616   
     axis 9.0955e-015 90 90   XYZ
    dof ry
    limits (-180.0 0.0)
 end
  begin
     id 21 
     name lhand
     direction 1 -4.49016e-011 -2.98023e-026   
     length 0.536598   
     axis 1.90115e-014 90 90   XYZ
    dof rx rz
    limits (-90.0 90.0)
           (-45.0 45.0)
  end
  begin
     id 22 
     name lfingers
     direction 1 -4.48924e-011 -5.9578e-026   
     length 0.432619   
     axis 3.80223e-014 90 90   XYZ
    dof rx
    limits (0.0 90.0)
  end
  begin
     id 23
     name lthumb
     direction 0.707107 -6.34947e-011 0.707107   
     length 0.621157   
     axis -90 45 -3.84942e-014   XYZ
    dof rx rz
    limits (-45.0 45.0)
           (-45.0 45.0)
  end
  begin
     id 24 
     name rclavicle
     direction -0.955495 0.276497 -0.102848   
     length 3.36357  
     axis 0 0 0   XYZ 
    dof ry rz
    limits (-10.0 20.0)
           (-20.0 0.0)
  end
  begin
     id 25 
     name rhumerus
     direction -1 -4.48961e-011 3.30983e-027  
     length 5.23431   
     axis 180 30 90   XYZ
    dof rx ry rz
    limits (-90.0 60.0)
           (-90.0 90.0)
           (-90.0 90.0)
  end
  begin
     id 26 
     name rradius
     direction -1 -4.48965e-011 -6.63263e-027   
     length 3.55301   
     axis 180 30 90   XYZ
    dof rx
    limits (-10.0 170.0)
  end
  begin
     id 27 
     name rwrist
     direction -1 -4.48942e-011 -1.48958e-026   
     length 1.77651   
     axis 9.0955e-015 -90 -90   XYZ
    dof ry
    limits (-180.0 0.0)
  end
  begin
     id 28
     name rhand
     direction -1 -4.48977e-011 -2.97966e-026   
     length 0.772522   
     axis 1.90115e-014 -90 -90   XYZ
    dof rx rz
    limits (-90.0 90.0)
           (-45.0 45.0)
  end
  begin
     id 29
     name rfingers
     direction -1 -4.49135e-011 -5.96389e-026   
     length 0.622827   
     axis 3.80223e-014 -90 -90   XYZ
    dof rx
    limits (0.0 90.0)
  end
  begin
     id 30
     name rthumb
     direction -0.707107 -6.34969e-011 0.707107   
     length 0.894259   
     axis -90 -45 3.84942e-014   XYZ
    dof rx rz
    limits (-45.0 45.0)
           (-45.0 45.0)
  end
:hierarchy
  begin
    root lhipjoint rhipjoint lowerback
    lhipjoint lfemur
    lfemur ltibia
    ltibia lfoot
    lfoot ltoes
    rhipjoint rfemur
    rfemur rtibia
    rtibia rfoot
    rfoot rtoes
    lowerback upperback
    upperback thorax
    thorax lowerneck lclavicle rclavicle
    lowerneck upperneck
    upperneck head
    lclavicle lhumerus
    lhumerus lradius
    lradius lwrist
    lwrist lhand lthumb
    lhand lfingers
    rclavicle rhumerus
    rhumerus rradius
    rradius rwrist
    rwrist rhand rthumb
    rhand rfingers
  end

#!OML:ASF F:\VICON\USERDATA\INSTALL\rory3\rory3.ASF
:FULLY-SPECIFIED
:DEGREES
18
root 13.3442 17.9812 -20.871 -0.411488 3.78021 3.05996
lowerback 10.3139 2.1657 -1.23386
upperback 1.70464 2.67651 -1.47308
thorax -3.98674 1.3347 -1.19996
lowerneck -19.0484 -8.19907 -12.9763
upperneck 24.2725 -10.6414 10.8608
head 12.5461 -4.63648 4.48469
rclavicle -1.08151e-014 -8.24956e-015
rhumerus -30.7285 -7.14724 -87.2022
rradius 28.7979
rwrist 7.0913
rhand -16.0333 11.092
rfingers 7.12502
rthumb 10.1681 -18.6423
lclavicle -1.08151e-014 -8.24956e-015
lhumerus -39.4438 4.41946 81.6969
lradius 32.8572
lwrist -6.18276
lhand -18.165 23.9666
lfingers 7.12502
lthumb 8.11106 53.7909
rfemur 3.09715 -2.082 18.6969
rtibia 48.2838
rfoot 17.6673 0.6127
rtoes 10.5845
lfemur -10.7786 0.896373 -25.5326
ltibia 12.3798
lfoot 1.06534 -13.4297
ltoes 4.24461
19
root 13.3514 17.9926 -20.7332 -0.900715 3.69415 2.86487
lowerback 10.5403 2.11686 -1.33995
upperback 1.94099 2.60604 -1.29702
thorax -3.87944 1.30168 -0.95109
lowerneck -19.4699 -8.15882 -13.0235
upperneck 24.4759 -10.5222 10.822
head 12.6952 -4.5778 4.49678
rclavicle -1.33481e-014 8.36138e-015
rhumerus -30.6267 -6.84527 -87.1806
rradius 28.8715
rwrist 6.95698
rhand -16.112 10.798
rfingers 7.12502
rthumb 10.0921 -18.94
lclavicle -1.33481e-014 8.36138e-015
lhumerus -39.0188 4.08201 82.0842
lradius 32.9906
lwrist -4.43373
lhand -20.4509 22.9899
lfingers 7.12502
lthumb 5.9045 52.8877
rfemur 2.17238 -1.73222 18.9859
rtibia 50.6626
rfoot 19.3085 -0.341781
rtoes 13.3506
lfemur -9.1928 0.912304 -25.3536
ltibia 11.2188
lfoot 1.20222 -13.2838
ltoes 4.43283
20
root 13.3892 18.0036 -20.614 -0.880807 3.83249 3.4022
lowerback 10.2992 2.02326 -1.8195
upperback 2.09071 2.43577 -1.37594
thorax -3.60727 1.22202 -0.727563
lowerneck -19.5584 -8.06434 -12.9541
upperneck 24.3168 -10.3416 10.6942
head 12.6096 -4.50473 4.46304
rclavicle -3.62968e-014 3.95085e-015
rhumerus -30.4764 -6.97844 -86.9273
rradius 28.8458
rwrist 7.42316
rhand -16.2966 10.6948
rfingers 7.12502
rthumb 9.91403 -19.0518
lclavicle -3.62968e-014 3.95085e-015
lhumerus -38.5627 4.48036 81.9552
lradius 32.955
lwrist -4.75444
lhand -20.657 20.8664
lfingers 7.12502
lthumb 5.70548 50.7696
rfemur 0.752898 -2.03118 18.0968
rtibia 53.0004
rfoot 20.7541 -0.909918
rtoes 17.952
lfemur -8.17742 0.930071 -26.1376
ltibia 10.1744
lfoot -0.0686573 -14.0057
ltoes -1.10822
21
root 13.4176 18.0172 -20.495 -0.936952 3.97189 4.11091
lowerback 10.4061 1.97188 -2.46851
upperback 2.04716 2.28418 -1.58404
thorax -3.72783 1.15332 -0.564893
lowerneck -19.3408 -8.0043 -12.7767
upperneck 24.2044 -10.2756 10.5121
head 12.4878 -4.48904 4.37588
rclavicle -4.76307e-015 -2.38417e-014
rhumerus -30.7044 -7.43419 -86.7592
rradius 28.7738
rwrist 7.52519
rhand -16.4118 11.0024
rfingers 7.12502
rthumb 9.80284 -18.7494
lclavicle -4.76307e-015 -2.38417e-014
lhumerus -38.1648 4.71962 81.7918
lradius 32.8295
lwrist -5.40763
lhand -19.997 21.8608
lfingers 7.12502
lthumb 6.34273 51.7458
rfemur -0.577363 -2.32583 17.0819
rtibia 55.1904
rfoot 20.7403 -0.812324
rtoes 15.1785
lfemur -7.16664 0.868341 -27.046
ltibia 9.31487
lfoot -0.984302 -14.3986
ltoes -5.40269
22
root 13.4363 18.0265 -20.3773 -1.14769 4.19265 4.40122
lowerback 10.8205 1.90047 -2.72635
upperback 1.98073 2.13775 -1.68454
thorax -4.03035 1.08505 -0.521331
lowerneck -19.1916 -7.96419 -12.7619
upperneck 24.1552 -10.2424 10.5298
head 12.4338 -4.47627 4.38854
rclavicle 2.91761e-014 3.48378e-015
rhumerus -30.9415 -7.62755 -86.7722
rradius 28.8225
rwrist 6.71832
rhand -16.4364 10.7148
rfingers 7.12502
rthumb 9.77909 -19.0382
lclavicle 2.91761e-014 3.48378e-015
lhumerus -37.1282 5.20727 81.5515
lradius 31.7584
lwrist -6.5993
lhand -18.4624 23.6373
lfingers 7.12502
lthumb 7.82408 53.4725
rfemur -1.69429 -2.59387 16.6759
rtibia 57.2415
rfoot 19.8918 -1.27216
rtoes 12.2609
lfemur -5.95501 0.757698 -27.4274
ltibia 8.27413
lfoot -0.643814 -14.55
ltoes -4.40244
23
root 13.4507 18.031 -20.2607 -1.32314 4.41419 4.36909
lowerback 11.1094 1.80622 -2.77429
upperback 1.93225 1.99613 -1.62721
thorax -4.24271 1.01727 -0.425377
lowerneck -19.1226 -7.87121 -12.7298
upperneck 24.1676 -10.1105 10.4701
head 12.4 -4.42444 4.38662
rclavicle -1.32836e-014 1.04983e-014
rhumerus -31.1147 -7.85658 -86.6146
rradius 28.8688
rwrist 6.42767
rhand -16.6062 10.5728
rfingers 7.12502
rthumb 9.61529 -19.1878
lclavicle -1.32836e-014 1.04983e-014
lhumerus -36.8136 5.21467 81.5171
lradius 31.8687
lwrist -7.14858
lhand -17.3894 24.3812
lfingers 7.12502
lthumb 8.85958 54.1752
rfemur -2.83855 -2.77387 16.7197
rtibia 59.125
rfoot 18.214 -2.40107
rtoes 10.3254
lfemur -4.96771 0.638111 -27.447
ltibia 7.52114
lfoot -0.59405 -14.5996
ltoes -4.58278
24
root 13.4695 18.0315 -20.1374 -1.48861 4.47102 4.39791
lowerback 11.1373 1.73282 -2.93229
upperback 1.94533 1.88322 -1.54235
thorax -4.25066 0.963985 -0.232284
lowerneck -19.0811 -7.78506 -12.7051
upperneck 24.2715 -9.95307 10.2838
head 12.3967 -4.3762 4.3427
rclavicle -4.44781e-015 -5.51627e-015
rhumerus -31.2974 -8.0971 -86.3183
rradius 28.9677
rwrist 6.71395
rhand -16.8477 11.004
rfingers 7.12502
rthumb 9.38232 -18.7672
lclavicle -4.44781e-015 -5.51627e-015
lhumerus -36.5939 5.27001 81.5104
lradius 31.9475
lwrist -7.31775
lhand -17.536 24.6334
lfingers 7.12502
lthumb 8.7181 54.4333
rfemur -4.00129 -2.92243 16.621
rtibia 60.864
rfoot 17.0151 -2.78274
rtoes 8.22355
lfemur -4.24698 0.678646 -27.563
ltibia 7.33265
lfoot -1.13792 -14.5499
ltoes -6.34366
25
root 13.4888 18.0328 -20.0114 -1.64256 4.52239 4.46057
lowerback 11.0731 1.65728 -3.11801
upperback 2.01932 1.77015 -1.45827
thorax -4.14372 0.909644 -0.0203469
lowerneck -19.1992 -7.73178 -12.7903
upperneck 24.4163 -9.82424 10.2095
head 12.46 -4.33218 4.35337
rclavicle -1.45237e-014 1.2424e-015
rhumerus -31.4098 -8.04759 -86.124
rradius 29.0787
rwrist 6.39326
rhand -16.6295 11.0765
rfingers 7.12502
rthumb 9.5928 -18.6851
lclavicle -1.45237e-014 1.2424e-015
lhumerus -36.2447 5.55329 81.5234
lradius 32.0226
lwrist -7.52573
lhand -17.717 26.0029
lfingers 7.12502
lthumb 8.54344 55.81
rfemur -5.14202 -3.22538 16.4709
rtibia 62.4522
rfoot 16.9945 -2.44215
rtoes 13.6361
lfemur -3.38033 0.727913 -27.6966
ltibia 6.91984
lfoot -1.53344 -14.6018
ltoes -6.98442
26
root 13.505 18.0346 -19.8916 -1.7977 4.82397 4.60736
lowerback 11.1393 1.51054 -3.35733
upperback 2.05855 1.5479 -1.41342
thorax -4.14134 0.802764 0.192243
lowerneck -19.2409 -7.63324 -12.9393
upperneck 24.5255 -9.66657 10.3063
head 12.5044 -4.26338 4.44837
rclavicle 1.42814e-014 3.57812e-015
rhumerus -31.5613 -8.14479 -85.9541
rradius 29.2708
rwrist 6.01947
rhand -16.1966 10.3323
rfingers 7.12502
rthumb 10.0105 -19.4097
lclavicle 1.42814e-014 3.57812e-015
lhumerus -35.8773 5.84635 81.5438
lradius 32.1016
lwrist -7.85104
lhand -17.8529 26.9923
lfingers 7.12502
lthumb 8.4123 56.8047
rfemur -6.224 -3.65992 16.2299
rtibia 63.8737
rfoot 15.2979 -2.8066
rtoes 13.9696
lfemur -2.5483 0.536952 -27.8902
ltibia 6.55771
lfoot -1.65669 -14.6137
ltoes -6.23151
